<svg version="1.1" id="Layer_1" xmlns="http://www.w3.org/2000/svg" xmlns:xlink="http://www.w3.org/1999/xlink" x="0px" y="0px"
	 width="100%" viewBox="0 0 676 637" enable-background="new 0 0 676 637" xml:space="preserve">
<path fill="#3B50AE" opacity="1.000000" stroke="none" 
	d="
M428.871033,174.693741 
	C447.989227,174.776291 467.107330,174.899124 486.225586,174.933182 
	C529.129822,175.009598 572.034180,175.041916 615.417725,175.633514 
	C615.934204,177.339600 616.003906,178.504333 616.003967,179.669067 
	C616.009949,325.927338 616.011719,472.185577 616.000122,618.443848 
	C616.000000,620.104004 615.822937,621.764160 615.728516,623.424316 
	C615.292908,623.502869 614.857300,623.581421 613.771118,623.460938 
	C609.177002,623.419373 605.233337,623.576843 601.289734,623.734375 
	C600.715759,623.761780 600.141785,623.789246 598.832336,623.545959 
	C587.501465,623.400269 576.906006,623.525208 566.310608,623.650146 
	C552.646729,623.702759 538.982788,623.755371 524.538330,623.573120 
	C516.717468,623.422363 509.677155,623.506531 502.636841,623.590759 
	C502.106445,623.576111 501.576080,623.561401 500.537659,623.135864 
	C494.102844,614.280151 488.196472,605.820923 482.246063,597.392700 
	C426.094208,517.858215 369.946289,438.320923 313.740387,358.824615 
	C311.193390,355.222229 308.102661,352.004211 305.210632,348.260254 
	C304.613495,346.712646 304.246643,345.388031 303.500916,344.330627 
	C296.505066,334.410431 289.458832,324.525574 282.385651,314.660248 
	C281.405212,313.292786 280.199127,312.087158 278.881134,310.555115 
	C277.886688,311.834686 277.359772,312.461151 276.888184,313.126831 
	C254.874176,344.199310 232.868225,375.277527 210.854263,406.350037 
	C190.090149,435.658356 169.278671,464.933228 148.564056,494.276489 
	C135.630295,512.597900 122.837418,531.018677 109.981308,549.394897 
	C98.726166,565.234070 87.471169,581.073303 76.215820,596.912292 
	C71.212769,603.952820 66.190781,610.980042 61.227489,618.048462 
	C60.577007,618.974854 60.225403,620.111206 59.735355,621.150330 
	C58.946907,620.783020 58.158459,620.415771 57.370010,620.048462 
	C57.370010,598.115417 57.370010,576.182434 57.276821,553.459412 
	C57.201233,550.170227 57.234215,547.671082 57.234253,545.171875 
	C57.236855,369.876831 57.236206,194.581818 57.244034,19.286779 
	C57.244137,16.956223 57.349251,14.625669 57.405354,12.295115 
	C65.875237,12.172400 74.345093,11.945603 82.815018,11.943422 
	C151.003601,11.925862 219.192184,11.950614 287.806091,12.377191 
	C287.095276,14.972016 286.194763,17.318762 284.788025,19.307447 
	C258.936218,55.854023 233.057312,92.381660 207.018295,128.794708 
	C205.809753,130.484772 203.111588,131.863632 201.007828,132.016098 
	C195.039948,132.448517 189.012360,132.359039 183.024216,132.102753 
	C179.065323,131.933319 177.867447,133.380035 177.881561,137.291443 
	C178.004242,171.286163 177.948456,205.281494 177.972748,239.276642 
	C177.973480,240.296021 178.270004,241.315186 178.520569,242.925262 
	C179.543045,241.762283 180.143768,241.192993 180.611816,240.530045 
	C192.608963,223.537186 204.652084,206.576263 216.549988,189.514099 
	C221.668930,182.173279 226.481766,174.619019 231.729004,167.037445 
	C240.234756,155.440399 248.445190,143.967651 256.940369,132.254669 
	C257.763214,131.386765 258.354492,130.796921 258.831696,130.125961 
	C278.542969,102.413994 298.283722,74.722847 317.927216,46.962906 
	C326.053986,35.478264 333.969666,23.844238 341.981323,12.278149 
	C352.468079,12.157785 362.954712,11.942349 373.441559,11.933174 
	C424.588501,11.888424 475.735474,11.897154 526.882446,11.896838 
	C528.546631,11.896829 530.210754,12.003387 532.347534,12.614256 
	C532.842102,52.794743 532.864014,92.421242 532.885925,132.047760 
	C526.931763,132.203079 520.978516,132.435669 515.023315,132.499512 
	C495.803772,132.705566 476.583588,132.849518 456.582977,132.835907 
	C439.526184,132.503876 423.250122,132.332382 406.973633,132.273193 
	C406.260376,132.270599 405.543427,133.296371 404.918396,133.860291 
	C405.008636,133.877441 404.836121,133.813278 404.501038,133.869522 
	C402.232483,136.378235 400.166504,138.738693 398.388550,141.299149 
	C390.841675,152.167404 383.380280,163.095016 375.815643,174.113495 
	C375.743652,174.226059 375.829071,174.479263 375.508362,174.633179 
	C372.504517,178.525589 369.821411,182.264069 366.949585,186.219940 
	C366.451294,187.122879 366.141724,187.808456 365.513916,188.650604 
	C361.519623,193.795364 357.802673,198.754105 354.185089,203.784286 
	C352.401672,206.264053 353.582611,208.045563 355.969910,209.696960 
	C356.763245,210.983978 357.440155,211.991028 358.210632,213.321899 
	C360.150269,215.929123 361.996338,218.212524 363.812744,220.631622 
	C363.783081,220.767334 363.936615,220.998856 363.989075,221.340057 
	C365.310486,223.179565 366.579437,224.677856 367.874023,226.097107 
	C367.899658,226.018036 367.803314,226.153519 367.820618,226.491760 
	C368.881989,228.235657 369.926056,229.641312 370.983032,231.022110 
	C370.995972,230.997253 370.948425,231.026978 370.996735,231.347473 
	C371.650696,232.247208 372.256348,232.826447 372.857452,233.567398 
	C372.852905,233.729111 373.029694,234.000076 373.064362,234.333069 
	C374.012421,235.610336 374.925812,236.554581 375.804871,237.632919 
	C375.770508,237.766998 375.917419,238.001617 375.976471,238.347397 
	C378.664368,242.196259 381.293213,245.699341 383.971313,249.504730 
	C384.913086,250.907974 385.805603,252.008881 386.792542,253.451935 
	C388.869568,256.363892 390.852234,258.933716 392.870270,261.806030 
	C393.589844,263.077026 394.274078,264.045502 395.011810,265.353943 
	C396.647919,267.527374 398.230560,269.360840 399.841248,271.091003 
	C399.869324,270.987732 399.782684,271.183716 399.795288,271.535400 
	C401.485535,274.090820 403.163177,276.294586 404.884583,278.822754 
	C406.302246,281.092224 407.676086,283.037354 409.141724,285.298401 
	C410.465576,287.137238 411.697571,288.660187 412.966949,290.485382 
	C413.646851,291.532928 414.289368,292.278168 414.989929,293.367676 
	C417.357574,296.828827 419.667175,299.945740 422.067993,303.357147 
	C422.788239,304.429626 423.417358,305.207611 424.077240,306.304749 
	C424.694824,307.208588 425.281616,307.793213 425.907166,308.672546 
	C426.808838,310.029785 427.671661,311.092346 428.643982,312.499084 
	C430.776001,315.410217 432.798462,317.977173 434.809814,320.837219 
	C435.201752,321.752594 435.604797,322.374939 436.055206,323.340149 
	C438.359497,326.570526 440.616394,329.458069 442.920410,332.664978 
	C444.219757,334.689545 445.471985,336.394775 446.810547,338.434692 
	C447.881775,339.986938 448.866669,341.204437 449.850952,342.580017 
	C449.850372,342.738068 450.027313,343.000031 450.064270,343.332733 
	C451.015533,344.602753 451.929871,345.540070 452.817261,346.618073 
	C452.790283,346.758789 452.946716,346.998901 452.992798,347.335785 
	C453.971008,348.620117 454.903107,349.567566 455.849396,350.787292 
	C456.414276,351.759369 456.964966,352.459137 457.619812,353.508240 
	C460.100403,357.044434 462.476807,360.231384 464.893738,363.718628 
	C465.785126,365.067963 466.636017,366.116943 467.588989,367.517700 
	C470.076630,371.067230 472.462189,374.264893 474.891296,377.776489 
	C476.168610,379.770325 477.402435,381.450287 478.747894,383.468323 
	C480.852478,386.373444 482.845459,388.940460 484.871582,391.810120 
	C485.590454,393.079437 486.276184,394.046082 487.017334,395.355286 
	C489.559540,399.136902 492.046356,402.575928 494.533173,406.014984 
	C495.678772,404.637726 495.825531,403.999115 495.825867,403.360443 
	C495.838226,380.720673 495.849854,358.080841 495.807190,335.441162 
	C495.804413,333.972321 495.369232,332.504242 495.356812,330.687805 
	C495.667938,319.711151 495.707581,309.081696 495.881836,298.454437 
	C495.925629,295.783295 494.746826,294.976044 492.283478,295.022186 
	C484.807709,295.162170 477.329987,295.196320 469.553680,295.098267 
	C465.180603,289.476227 460.993195,284.108459 457.051849,278.565765 
	C433.460785,245.389908 409.916809,212.180573 386.413849,178.942276 
	C385.614075,177.811218 385.417480,176.253647 385.409882,174.944427 
	C400.210358,174.893906 414.540710,174.793823 428.871033,174.693741 
z"/>
<path fill="#F230BF" opacity="1.000000" stroke="none" 
	d="
M56.910179,12.195324 
	C57.349251,14.625669 57.244137,16.956223 57.244034,19.286779 
	C57.236206,194.581818 57.236855,369.876831 57.234253,545.171875 
	C57.234215,547.671082 57.201233,550.170227 57.111031,553.084961 
	C49.437534,564.021484 41.795753,574.513245 34.247086,585.071594 
	C26.497253,595.911255 18.846241,606.821655 11.128540,617.684387 
	C10.297880,618.853455 9.311211,619.911743 8.396910,621.021484 
	C7.940797,620.934204 7.484683,620.846985 7.028570,620.759766 
	C7.028570,613.383301 7.028842,606.006836 7.028529,598.630371 
	C7.024318,499.305695 7.008893,399.980988 7.019284,300.656311 
	C7.027636,220.829880 7.067861,141.003433 7.092371,61.177006 
	C7.096874,46.511539 7.189990,31.845003 7.026984,17.181351 
	C6.985995,13.494093 7.672346,11.829017 11.921227,11.910621 
	C26.748201,12.195392 41.583111,12.066945 56.910179,12.195324 
z"/>
<path fill="#54EAD4" opacity="1.000000" stroke="none" 
	d="
M616.203369,623.544922 
	C615.822937,621.764160 616.000000,620.104004 616.000122,618.443848 
	C616.011719,472.185577 616.009949,325.927338 616.003967,179.669067 
	C616.003906,178.504333 615.934204,177.339600 615.867065,175.729095 
	C632.494446,175.202560 649.152588,175.195770 665.808228,174.988724 
	C669.948181,174.937271 669.761780,177.434662 669.760681,180.244934 
	C669.750305,207.575638 669.786865,234.906326 669.785034,262.237030 
	C669.776917,380.392792 669.760437,498.548523 669.746460,616.704285 
	C669.745667,623.732300 669.743042,623.742249 662.669495,623.734436 
	C647.339111,623.717407 632.008728,623.689209 616.203369,623.544922 
z"/>
<path fill="#53EAD4" opacity="1.000000" stroke="none" 
	d="
M110.239197,549.781982 
	C122.837418,531.018677 135.630295,512.597900 148.564056,494.276489 
	C169.278671,464.933228 190.090149,435.658356 210.854263,406.350037 
	C232.868225,375.277527 254.874176,344.199310 276.888184,313.126831 
	C277.359772,312.461151 277.886688,311.834686 278.881134,310.555115 
	C280.199127,312.087158 281.405212,313.292786 282.385651,314.660248 
	C289.458832,324.525574 296.505066,334.410431 303.500916,344.330627 
	C304.246643,345.388031 304.613495,346.712646 304.995361,348.575165 
	C299.329041,356.973114 293.762054,364.666534 288.344208,372.463593 
	C285.703522,376.263855 283.341095,380.257477 280.852722,384.163574 
	C275.794586,390.940918 270.591156,397.615265 265.701508,404.512054 
	C229.804825,455.143829 193.964737,505.815704 158.120316,556.484497 
	C143.805222,576.719971 129.525360,596.980347 115.224831,617.226135 
	C114.313911,618.515686 113.362846,619.776855 111.275780,620.718445 
	C111.182877,619.000305 111.010902,617.282227 111.009186,615.564026 
	C110.989731,596.072998 111.012871,576.581909 110.973984,557.091003 
	C110.969376,554.783325 110.663383,552.476379 110.239197,549.781982 
z"/>
<path fill="#F030BE" opacity="1.000000" stroke="none" 
	d="
M281.139221,384.443207 
	C283.341095,380.257477 285.703522,376.263855 288.344208,372.463593 
	C293.762054,364.666534 299.329041,356.973114 305.049927,348.922119 
	C308.102661,352.004211 311.193390,355.222229 313.740387,358.824615 
	C369.946289,438.320923 426.094208,517.858215 482.246063,597.392700 
	C488.196472,605.820923 494.102844,614.280151 500.157837,623.011841 
	C484.469116,623.416809 468.651062,623.643860 452.836761,623.490417 
	C451.197418,623.474487 449.144775,621.506897 448.016785,619.922913 
	C426.088776,589.131226 404.253906,558.273132 382.432770,527.405457 
	C356.577057,490.830414 330.764435,454.224945 304.907013,417.651093 
	C297.124664,406.643372 289.255280,395.697205 281.139221,384.443207 
z"/>
<path fill="#54EAD4" opacity="1.000000" stroke="none" 
	d="
M428.534485,312.154907 
	C427.671661,311.092346 426.808838,310.029785 425.921570,308.313477 
	C425.280273,307.101685 424.663361,306.543640 424.046448,305.985565 
	C423.417358,305.207611 422.788239,304.429626 422.076263,302.965149 
	C421.439545,297.820190 419.417725,294.481812 414.931885,293.023438 
	C414.289368,292.278168 413.646851,291.532928 412.989807,290.077637 
	C413.242523,286.495422 412.199310,284.796265 409.049896,284.982483 
	C407.676086,283.037354 406.302246,281.092224 404.909424,278.419800 
	C403.719299,275.105804 403.946014,271.422211 399.782684,271.183716 
	C399.782684,271.183716 399.869324,270.987732 399.903198,270.689606 
	C400.430847,266.605286 397.991119,265.535095 394.958313,265.013977 
	C394.274078,264.045502 393.589844,263.077026 392.913818,261.383423 
	C392.380310,256.878174 391.497375,253.379456 386.698151,253.109787 
	C385.805603,252.008881 384.913086,250.907974 383.993103,249.108856 
	C382.266998,244.180099 382.258667,238.642548 375.917419,238.001617 
	C375.917419,238.001617 375.770508,237.766998 375.831299,237.247177 
	C374.937958,235.818253 373.983826,234.909164 373.029694,234.000076 
	C373.029694,234.000076 372.852905,233.729111 372.871948,233.198578 
	C372.243469,232.121017 371.595947,231.574005 370.948425,231.026978 
	C370.948425,231.026978 370.995972,230.997253 370.993439,230.631119 
	C369.928375,228.894501 368.865845,227.524002 367.803314,226.153519 
	C367.803314,226.153519 367.899658,226.018036 367.896667,225.726852 
	C366.574646,223.956726 365.255646,222.477798 363.936615,220.998856 
	C363.936615,220.998856 363.783081,220.767334 363.835175,220.220520 
	C363.022217,216.533707 362.755768,212.876266 358.117065,212.998077 
	C357.440155,211.991028 356.763245,210.983978 356.013123,209.268707 
	C357.180695,205.801086 358.334900,202.998566 359.682831,200.292526 
	C361.659912,196.323486 363.775574,192.423462 365.832214,188.494019 
	C366.141724,187.808456 366.451294,187.122879 367.304932,186.214417 
	C373.105865,183.954178 375.493958,179.928268 375.829071,174.479263 
	C375.829071,174.479263 375.743652,174.226059 376.185486,174.081879 
	C378.081116,172.954117 379.938599,172.269333 380.923492,170.938705 
	C387.521515,162.024368 394.088806,153.077820 400.317810,143.905243 
	C402.356628,140.903015 403.359528,137.197296 404.836121,133.813278 
	C404.836121,133.813278 405.008636,133.877441 405.401611,133.914948 
	C422.657379,133.968384 439.520233,133.984314 456.383057,134.000244 
	C450.747284,142.323898 445.121307,150.654205 439.472076,158.968735 
	C436.041077,164.018463 432.574188,169.043777 428.997223,174.386902 
	C414.540710,174.793823 400.210358,174.893906 385.197571,174.700912 
	C381.299591,174.013351 380.334198,175.069122 382.327148,177.898529 
	C387.907410,185.820831 393.562714,193.690735 399.094818,201.646408 
	C404.093353,208.834778 408.857178,216.187927 413.921783,223.328445 
	C423.367035,236.645187 433.014130,249.818756 442.465607,263.131134 
	C449.768280,273.416901 456.786652,283.906891 464.228546,294.088928 
	C465.375427,295.658081 468.120575,296.059082 470.381134,297.212891 
	C478.452087,308.535889 486.268433,319.646301 494.057922,331.243958 
	C494.031067,353.708679 494.031067,375.686218 494.031067,398.521759 
	C490.907898,396.971466 488.934906,395.992126 486.961914,395.012756 
	C486.276184,394.046082 485.590454,393.079437 484.896118,391.407135 
	C483.055695,387.969727 483.522797,383.339905 478.636292,383.130249 
	C477.402435,381.450287 476.168610,379.770325 474.914703,377.379333 
	C472.436615,373.492065 472.892761,368.044098 467.486938,367.165894 
	C466.636017,366.116943 465.785126,365.067963 464.934387,363.302399 
	C464.092743,358.159790 462.432526,354.377899 457.515656,353.158936 
	C456.964966,352.459137 456.414276,351.759369 455.876221,350.396667 
	C454.908173,348.822174 453.927429,347.910522 452.946716,346.998901 
	C452.946716,346.998901 452.790283,346.758789 452.842834,346.233459 
	C451.939362,344.805420 450.983337,343.902740 450.027313,343.000031 
	C450.027313,343.000031 449.850372,342.738068 449.891785,342.167358 
	C448.863556,340.431122 447.793884,339.265564 446.724213,338.100006 
	C445.471985,336.394775 444.219757,334.689545 442.956177,332.249817 
	C442.764526,326.939667 440.427094,324.120758 436.007812,322.997284 
	C435.604797,322.374939 435.201752,321.752594 434.856201,320.422333 
	C434.163971,316.032837 432.713867,312.942291 428.534485,312.154907 
z"/>
<path fill="#52E8D3" opacity="1.000000" stroke="none" 
	d="
M341.531128,12.157255 
	C333.969666,23.844238 326.053986,35.478264 317.927216,46.962906 
	C298.283722,74.722847 278.542969,102.413994 258.831696,130.125961 
	C258.354492,130.796921 257.763214,131.386765 256.508728,132.165497 
	C248.843704,132.290390 241.893265,132.347580 234.947357,132.196732 
	C232.192993,132.136917 231.097748,133.079285 231.146790,135.905487 
	C231.327545,146.322769 231.351059,156.742767 231.433685,167.161743 
	C226.481766,174.619019 221.668930,182.173279 216.549988,189.514099 
	C204.652084,206.576263 192.608963,223.537186 180.611816,240.530045 
	C180.143768,241.192993 179.543045,241.762283 178.520569,242.925262 
	C178.270004,241.315186 177.973480,240.296021 177.972748,239.276642 
	C177.948456,205.281494 178.004242,171.286163 177.881561,137.291443 
	C177.867447,133.380035 179.065323,131.933319 183.024216,132.102753 
	C189.012360,132.359039 195.039948,132.448517 201.007828,132.016098 
	C203.111588,131.863632 205.809753,130.484772 207.018295,128.794708 
	C233.057312,92.381660 258.936218,55.854023 284.788025,19.307447 
	C286.194763,17.318762 287.095276,14.972016 288.295929,12.418209 
	C305.933929,12.041769 323.507416,12.039063 341.531128,12.157255 
z"/>
<path fill="#54EAD4" opacity="1.000000" stroke="none" 
	d="
M533.361206,132.120819 
	C532.864014,92.421242 532.842102,52.794743 532.789917,12.721028 
	C549.394958,12.187592 566.030701,12.147937 582.665100,11.973182 
	C585.740540,11.940873 586.196106,13.497499 586.177795,16.022133 
	C586.109009,25.486652 586.153687,34.951988 586.153931,44.417019 
	C586.154541,64.867111 586.153931,85.317207 586.153809,105.767303 
	C586.153748,112.897842 585.955688,120.036057 586.232117,127.155861 
	C586.383789,131.064270 585.210449,132.353088 581.187195,132.297424 
	C565.406189,132.079117 549.620483,132.199371 533.361206,132.120819 
z"/>
<path fill="#52E8D3" opacity="1.000000" stroke="none" 
	d="
M456.466492,133.820953 
	C439.520233,133.984314 422.657379,133.968384 405.311371,133.897797 
	C405.543427,133.296371 406.260376,132.270599 406.973633,132.273193 
	C423.250122,132.332382 439.526184,132.503876 456.156738,132.951233 
	C456.511108,133.248093 456.549896,133.641678 456.466492,133.820953 
z"/>
<path fill="#54EAD4" opacity="1.000000" stroke="none" 
	d="
M566.730591,623.761841 
	C576.906006,623.525208 587.501465,623.400269 598.405884,623.478027 
	C588.193481,623.744995 577.671997,623.809265 566.730591,623.761841 
z"/>
<path fill="#F030BE" opacity="1.000000" stroke="none" 
	d="
M503.027405,623.677124 
	C509.677155,623.506531 516.717468,623.422363 524.030334,623.505371 
	C517.341187,623.702759 510.379578,623.733093 503.027405,623.677124 
z"/>
<path fill="#54EAD4" opacity="1.000000" stroke="none" 
	d="
M601.711792,623.825928 
	C605.233337,623.576843 609.177002,623.419373 613.438599,623.447144 
	C609.882385,623.727478 606.008057,623.822449 601.711792,623.825928 
z"/>
<path fill="#E335BE" opacity="1.000000" stroke="none" 
	d="
M494.084808,330.756714 
	C486.268433,319.646301 478.452087,308.535889 470.377258,296.918213 
	C470.030182,296.031219 469.941620,295.651489 469.853027,295.271729 
	C477.329987,295.196320 484.807709,295.162170 492.283478,295.022186 
	C494.746826,294.976044 495.925629,295.783295 495.881836,298.454437 
	C495.707581,309.081696 495.667938,319.711151 495.101257,330.589539 
	C494.444305,330.811768 494.264557,330.784241 494.084808,330.756714 
z"/>
<path fill="#E33BBF" opacity="1.000000" stroke="none" 
	d="
M231.729004,167.037445 
	C231.351059,156.742767 231.327545,146.322769 231.146790,135.905487 
	C231.097748,133.079285 232.192993,132.136917 234.947357,132.196732 
	C241.893265,132.347580 248.843704,132.290390 256.223999,132.405731 
	C248.445190,143.967651 240.234756,155.440399 231.729004,167.037445 
z"/>
<path fill="#52E8D3" opacity="1.000000" stroke="none" 
	d="
M469.553711,295.098267 
	C469.941620,295.651489 470.030182,296.031219 470.122681,296.705658 
	C468.120575,296.059082 465.375427,295.658081 464.228546,294.088928 
	C456.786652,283.906891 449.768280,273.416901 442.465607,263.131134 
	C433.014130,249.818756 423.367035,236.645187 413.921783,223.328445 
	C408.857178,216.187927 404.093353,208.834778 399.094818,201.646408 
	C393.562714,193.690735 387.907410,185.820831 382.327148,177.898529 
	C380.334198,175.069122 381.299591,174.013351 384.727417,174.651367 
	C385.417480,176.253647 385.614075,177.811218 386.413849,178.942276 
	C409.916809,212.180573 433.460785,245.389908 457.051849,278.565765 
	C460.993195,284.108459 465.180603,289.476227 469.553711,295.098267 
z"/>
<path fill="#52E8D3" opacity="1.000000" stroke="none" 
	d="
M494.057922,331.243958 
	C494.264557,330.784241 494.444305,330.811768 494.879639,330.937561 
	C495.369232,332.504242 495.804413,333.972321 495.807190,335.441162 
	C495.849854,358.080841 495.838226,380.720673 495.825867,403.360443 
	C495.825531,403.999115 495.678772,404.637726 494.533173,406.014984 
	C492.046356,402.575928 489.559540,399.136902 487.017334,395.355286 
	C488.934906,395.992126 490.907898,396.971466 494.031067,398.521759 
	C494.031067,375.686218 494.031067,353.708679 494.057922,331.243958 
z"/>
<path fill="#52E8D3" opacity="1.000000" stroke="none" 
	d="
M404.501038,133.869522 
	C403.359528,137.197296 402.356628,140.903015 400.317810,143.905243 
	C394.088806,153.077820 387.521515,162.024368 380.923492,170.938705 
	C379.938599,172.269333 378.081116,172.954117 376.257507,173.969315 
	C383.380280,163.095016 390.841675,152.167404 398.388550,141.299149 
	C400.166504,138.738693 402.232483,136.378235 404.501038,133.869522 
z"/>
<path fill="#52E8D3" opacity="1.000000" stroke="none" 
	d="
M365.513916,188.650604 
	C363.775574,192.423462 361.659912,196.323486 359.682831,200.292526 
	C358.334900,202.998566 357.180695,205.801086 355.896698,208.988708 
	C353.582611,208.045563 352.401672,206.264053 354.185089,203.784286 
	C357.802673,198.754105 361.519623,193.795364 365.513916,188.650604 
z"/>
<path fill="#52E8D3" opacity="1.000000" stroke="none" 
	d="
M375.508362,174.633179 
	C375.493958,179.928268 373.105865,183.954178 367.493652,185.997040 
	C369.821411,182.264069 372.504517,178.525589 375.508362,174.633179 
z"/>
<path fill="#52E8D3" opacity="1.000000" stroke="none" 
	d="
M375.976471,238.347397 
	C382.258667,238.642548 382.266998,244.180099 383.943878,248.806534 
	C381.293213,245.699341 378.664368,242.196259 375.976471,238.347397 
z"/>
<path fill="#52E8D3" opacity="1.000000" stroke="none" 
	d="
M457.619812,353.508240 
	C462.432526,354.377899 464.092743,358.159790 464.893860,363.002075 
	C462.476807,360.231384 460.100403,357.044434 457.619812,353.508240 
z"/>
<path fill="#52E8D3" opacity="1.000000" stroke="none" 
	d="
M436.055206,323.340149 
	C440.427094,324.120758 442.764526,326.939667 442.909058,331.930481 
	C440.616394,329.458069 438.359497,326.570526 436.055206,323.340149 
z"/>
<path fill="#52E8D3" opacity="1.000000" stroke="none" 
	d="
M414.989929,293.367676 
	C419.417725,294.481812 421.439545,297.820190 421.985107,302.670593 
	C419.667175,299.945740 417.357574,296.828827 414.989929,293.367676 
z"/>
<path fill="#52E8D3" opacity="1.000000" stroke="none" 
	d="
M467.588989,367.517700 
	C472.892761,368.044098 472.436615,373.492065 474.871216,377.065430 
	C472.462189,374.264893 470.076630,371.067230 467.588989,367.517700 
z"/>
<path fill="#52E8D3" opacity="1.000000" stroke="none" 
	d="
M386.792542,253.451935 
	C391.497375,253.379456 392.380310,256.878174 392.878448,261.080872 
	C390.852234,258.933716 388.869568,256.363892 386.792542,253.451935 
z"/>
<path fill="#52E8D3" opacity="1.000000" stroke="none" 
	d="
M428.643982,312.499084 
	C432.713867,312.942291 434.163971,316.032837 434.867310,320.129272 
	C432.798462,317.977173 430.776001,315.410217 428.643982,312.499084 
z"/>
<path fill="#52E8D3" opacity="1.000000" stroke="none" 
	d="
M478.747894,383.468323 
	C483.522797,383.339905 483.055695,387.969727 484.862976,391.104492 
	C482.845459,388.940460 480.852478,386.373444 478.747894,383.468323 
z"/>
<path fill="#52E8D3" opacity="1.000000" stroke="none" 
	d="
M358.210632,213.321899 
	C362.755768,212.876266 363.022217,216.533707 363.864838,220.084808 
	C361.996338,218.212524 360.150269,215.929123 358.210632,213.321899 
z"/>
<path fill="#52E8D3" opacity="1.000000" stroke="none" 
	d="
M399.795288,271.535400 
	C403.946014,271.422211 403.719299,275.105804 404.865601,278.095398 
	C403.163177,276.294586 401.485535,274.090820 399.795288,271.535400 
z"/>
<path fill="#52E8D3" opacity="1.000000" stroke="none" 
	d="
M395.011810,265.353943 
	C397.991119,265.535095 400.430847,266.605286 399.875122,270.792877 
	C398.230560,269.360840 396.647919,267.527374 395.011810,265.353943 
z"/>
<path fill="#52E8D3" opacity="1.000000" stroke="none" 
	d="
M409.141724,285.298401 
	C412.199310,284.796265 413.242523,286.495422 412.952454,289.775391 
	C411.697571,288.660187 410.465576,287.137238 409.141724,285.298401 
z"/>
<path fill="#52E8D3" opacity="1.000000" stroke="none" 
	d="
M367.820618,226.491760 
	C368.865845,227.524002 369.928375,228.894501 370.980499,230.655975 
	C369.926056,229.641312 368.881989,228.235657 367.820618,226.491760 
z"/>
<path fill="#52E8D3" opacity="1.000000" stroke="none" 
	d="
M363.989075,221.340057 
	C365.255646,222.477798 366.574646,223.956726 367.871033,225.805908 
	C366.579437,224.677856 365.310486,223.179565 363.989075,221.340057 
z"/>
<path fill="#52E8D3" opacity="1.000000" stroke="none" 
	d="
M446.810547,338.434692 
	C447.793884,339.265564 448.863556,340.431122 449.892395,342.009338 
	C448.866669,341.204437 447.881775,339.986938 446.810547,338.434692 
z"/>
<path fill="#52E8D3" opacity="1.000000" stroke="none" 
	d="
M450.064270,343.332733 
	C450.983337,343.902740 451.939362,344.805420 452.869812,346.092743 
	C451.929871,345.540070 451.015533,344.602753 450.064270,343.332733 
z"/>
<path fill="#52E8D3" opacity="1.000000" stroke="none" 
	d="
M452.992798,347.335785 
	C453.927429,347.910522 454.908173,348.822174 455.862061,350.124390 
	C454.903107,349.567566 453.971008,348.620117 452.992798,347.335785 
z"/>
<path fill="#52E8D3" opacity="1.000000" stroke="none" 
	d="
M373.064362,234.333069 
	C373.983826,234.909164 374.937958,235.818253 375.865631,237.113098 
	C374.925812,236.554581 374.012421,235.610336 373.064362,234.333069 
z"/>
<path fill="#52E8D3" opacity="1.000000" stroke="none" 
	d="
M424.077240,306.304749 
	C424.663361,306.543640 425.280273,307.101685 425.882782,308.018799 
	C425.281616,307.793213 424.694824,307.208588 424.077240,306.304749 
z"/>
<path fill="#52E8D3" opacity="1.000000" stroke="none" 
	d="
M370.996735,231.347473 
	C371.595947,231.574005 372.243469,232.121017 372.876526,233.036865 
	C372.256348,232.826447 371.650696,232.247208 370.996735,231.347473 
z"/>
</svg>