<?xml version="1.0" encoding="UTF-8"?>
<!-- Generator: https://ezgif.com/png-to-svg -->
<svg version="1.1" xmlns="http://www.w3.org/2000/svg" width="1024" height="1024">
<path d="M0 0 C337.92 0 675.84 0 1024 0 C1024 337.92 1024 675.84 1024 1024 C686.08 1024 348.16 1024 0 1024 C0 686.08 0 348.16 0 0 Z " fill="transparent" transform="translate(0,0)"/>
<path d="M0 0 C4.26 3.35 8.26 6.91 11.95 10.88 C12.61 11.55 13.28 12.22 13.96 12.91 C29.93 29.62 36.39 50.34 36.31 73.15 C35.74 97.18 25.17 117.65 7.98 134.24 C-4.1 145.05 -18.29 150.73 -34.05 153.88 C-34.05 181.93 -34.05 209.98 -34.05 238.88 C-16.17 238.72 -16.17 238.72 1.72 238.52 C3.99 238.51 6.26 238.5 8.52 238.49 C9.67 238.47 10.82 238.45 12 238.43 C26.66 238.42 37.48 243.66 48.07 253.57 C59.95 265.9 59.95 265.9 59.95 271.88 C60.54 271.87 61.13 271.87 61.75 271.87 C68.04 271.82 74.34 271.79 80.64 271.77 C82.97 271.76 85.31 271.75 87.65 271.73 C131.31 271.41 172.23 280.17 210.95 300.88 C212.1 301.49 213.26 302.11 214.45 302.74 C228.23 310.32 241.05 319.61 252.95 329.88 C253.73 330.55 254.51 331.22 255.31 331.91 C266.78 341.99 277.6 352.8 286.95 364.88 C287.72 365.82 288.49 366.77 289.29 367.74 C296.86 377.17 302.96 387.38 308.95 397.88 C309.37 398.62 309.79 399.35 310.22 400.12 C318.98 415.58 325.19 431.97 330.62 448.86 C330.84 449.53 331.07 450.19 331.29 450.87 C331.74 452.23 332.14 453.6 332.5 454.99 C334.31 461.02 337.4 463.11 342.76 466.13 C366.55 480.53 382.02 500.84 388.95 527.88 C392.9 544.84 394.18 561.33 394.2 578.69 C394.2 579.99 394.2 579.99 394.2 581.32 C394.18 594.71 393.7 607.73 390.95 620.88 C390.78 621.68 390.62 622.48 390.46 623.31 C384.68 651.07 369.89 673.97 346.18 689.81 C342.95 691.88 342.95 691.88 340.98 692.65 C336.89 694.48 335.25 696.22 333.33 700.33 C331.98 704 330.83 707.74 329.73 711.5 C328.51 715.61 327.2 719.7 325.89 723.79 C325.64 724.59 325.38 725.39 325.12 726.21 C311.46 769 279.78 811.04 243.68 837.6 C241.88 838.92 240.11 840.28 238.34 841.64 C213.82 860.29 185.44 873.33 155.95 881.88 C155.28 882.07 154.62 882.27 153.93 882.47 C146.76 884.57 139.55 886.24 132.2 887.57 C131.53 887.69 130.87 887.81 130.19 887.93 C120 889.66 109.84 890.03 99.51 890.02 C98.2 890.02 96.89 890.03 95.54 890.03 C91.93 890.04 88.31 890.04 84.7 890.04 C80.79 890.04 76.88 890.05 72.97 890.06 C64.44 890.07 55.9 890.07 47.36 890.08 C42.02 890.08 36.68 890.09 31.34 890.09 C16.53 890.1 1.71 890.11 -13.11 890.12 C-14.06 890.12 -15 890.12 -15.98 890.12 C-16.93 890.12 -17.88 890.12 -18.85 890.12 C-20.78 890.12 -22.7 890.12 -24.62 890.12 C-25.58 890.12 -26.53 890.12 -27.51 890.12 C-42.94 890.12 -58.37 890.14 -73.8 890.16 C-89.68 890.19 -105.56 890.2 -121.44 890.2 C-130.34 890.2 -139.24 890.21 -148.14 890.23 C-155.72 890.24 -163.31 890.25 -170.89 890.24 C-174.75 890.24 -178.61 890.24 -182.47 890.25 C-203.65 890.32 -224.6 889.67 -245.18 884.13 C-246.17 883.87 -247.16 883.61 -248.18 883.34 C-251.15 882.54 -254.1 881.72 -257.05 880.88 C-258.36 880.52 -258.36 880.52 -259.68 880.15 C-283.25 873.44 -305.98 861.83 -326.05 847.88 C-326.73 847.41 -327.4 846.95 -328.09 846.47 C-345.36 834.4 -362.77 820.3 -376.05 803.88 C-377.04 802.71 -378.02 801.54 -379 800.37 C-397.99 777.62 -412.69 752.12 -422.74 724.25 C-423.33 722.64 -423.33 722.64 -423.93 720.99 C-425.54 716.48 -427.1 712.05 -428.1 707.37 C-430.13 698.73 -433.33 695.23 -440.62 690.63 C-442.23 689.65 -443.84 688.69 -445.45 687.72 C-451.81 683.92 -456.87 679.14 -462.05 673.88 C-462.72 673.22 -463.38 672.55 -464.06 671.87 C-490.83 643.24 -492.36 600.75 -491.14 563.84 C-489.82 532.96 -480.63 504.44 -459.05 481.88 C-458.25 480.98 -458.25 480.98 -457.42 480.05 C-451.75 473.94 -443.86 467.44 -436.18 464.05 C-433.23 462.73 -431.49 461.75 -430.01 458.8 C-429.12 456.1 -428.42 453.39 -427.74 450.63 C-414.47 402.39 -384.63 356.71 -345.05 325.88 C-344.27 325.23 -343.49 324.58 -342.68 323.91 C-330.79 314.07 -317.65 306.13 -304.05 298.88 C-303.4 298.53 -302.75 298.18 -302.08 297.82 C-269.63 280.63 -233.14 271.41 -196.4 271.91 C-194.06 271.92 -191.71 271.92 -189.37 271.92 C-185.72 271.93 -182.08 271.94 -178.44 272.01 C-174.88 272.06 -171.33 272.06 -167.78 272.04 C-166.15 272.09 -166.15 272.09 -164.48 272.14 C-161.37 272.09 -158.98 271.95 -156.05 270.88 C-153.32 267.84 -151.77 264.55 -150.05 260.88 C-142.08 249.68 -131.28 242.43 -118.05 238.88 C-113.67 238.39 -109.35 238.41 -104.95 238.49 C-103.34 238.49 -103.34 238.49 -101.71 238.5 C-97.76 238.52 -93.81 238.58 -89.87 238.63 C-81.02 238.71 -72.17 238.79 -63.05 238.88 C-63.05 210.83 -63.05 182.78 -63.05 153.88 C-66.35 153.22 -69.65 152.56 -73.05 151.88 C-93.68 145.61 -111.46 131.25 -121.81 112.37 C-132.39 92.41 -136 69.34 -130.15 47.13 C-122.41 24.2 -108.5 5.66 -87.05 -6.12 C-59.34 -19.8 -25.41 -17.65 0 0 Z " fill="#FEFEFE" transform="translate(561.0546875,51.12109375)"/>
<path d="M0 0 C1.86 -0.01 1.86 -0.01 3.75 -0.01 C5.12 -0.01 6.48 -0.01 7.85 -0.01 C9.31 -0.01 10.76 -0.01 12.22 -0.02 C16.22 -0.03 20.22 -0.03 24.22 -0.03 C28.54 -0.03 32.86 -0.04 37.18 -0.04 C46.62 -0.06 56.06 -0.06 65.5 -0.07 C71.4 -0.07 77.3 -0.08 83.2 -0.08 C99.54 -0.09 115.89 -0.1 132.24 -0.11 C133.28 -0.11 134.33 -0.11 135.41 -0.11 C136.45 -0.11 137.5 -0.11 138.58 -0.11 C140.71 -0.11 142.83 -0.11 144.96 -0.11 C146.54 -0.11 146.54 -0.11 148.15 -0.11 C165.21 -0.11 182.26 -0.13 199.32 -0.15 C216.85 -0.18 234.37 -0.19 251.9 -0.19 C261.74 -0.19 271.57 -0.2 281.41 -0.22 C289.79 -0.23 298.16 -0.24 306.54 -0.23 C310.81 -0.22 315.08 -0.23 319.35 -0.24 C360.83 -0.37 395.05 8.58 425.83 37.88 C448.41 61.2 462.04 92.64 462.1 125.1 C462.11 126.31 462.11 127.51 462.12 128.75 C462.13 131.28 462.14 133.81 462.14 136.35 C462.14 140.16 462.18 143.97 462.21 147.79 C462.39 185.28 450.54 215.72 424.77 243.13 C424.24 243.72 423.71 244.31 423.17 244.92 C403.58 266.01 373 277.72 344.77 280.13 C340.13 280.28 335.49 280.27 330.85 280.27 C329.44 280.27 328.02 280.27 326.61 280.27 C322.73 280.28 318.86 280.28 314.99 280.28 C310.81 280.28 306.62 280.28 302.44 280.29 C294.25 280.3 286.06 280.3 277.87 280.3 C271.2 280.3 264.54 280.3 257.88 280.3 C238.97 280.31 220.06 280.32 201.16 280.32 C200.14 280.32 199.12 280.32 198.07 280.32 C197.05 280.32 196.03 280.32 194.98 280.32 C178.46 280.32 161.94 280.33 145.43 280.34 C128.45 280.35 111.47 280.36 94.49 280.36 C84.97 280.36 75.44 280.36 65.92 280.37 C57.81 280.38 49.69 280.38 41.58 280.38 C37.45 280.37 33.32 280.37 29.18 280.38 C25.39 280.39 21.59 280.39 17.8 280.38 C15.8 280.38 13.8 280.39 11.8 280.39 C-0.63 280.35 -13.14 279.32 -25.05 275.57 C-25.88 275.31 -26.7 275.06 -27.56 274.79 C-60.77 264.06 -88.29 241.19 -104.25 210.15 C-112.66 193 -117.55 175.11 -117.54 156 C-117.54 154.88 -117.54 153.77 -117.55 152.61 C-117.55 150.27 -117.56 147.92 -117.55 145.57 C-117.55 142.04 -117.57 138.5 -117.6 134.97 C-117.64 119.12 -117.02 103.43 -111.73 88.32 C-111.49 87.6 -111.24 86.88 -110.99 86.14 C-105.55 71.13 -97.63 57.23 -87.23 45.13 C-86.52 44.27 -85.8 43.4 -85.07 42.51 C-64.91 18.98 -31.61 0.04 0 0 Z " fill="#1E1B1C" transform="translate(340.2349672317505,490.8685722351074)"/>
<path d="M0 0 C4.26 3.35 8.26 6.91 11.95 10.88 C12.61 11.55 13.28 12.22 13.96 12.91 C29.93 29.62 36.39 50.34 36.31 73.15 C35.74 97.18 25.17 117.65 7.98 134.24 C-4.1 145.05 -18.29 150.73 -34.05 153.88 C-34.05 181.93 -34.05 209.98 -34.05 238.88 C-16.17 238.72 -16.17 238.72 1.72 238.52 C3.99 238.51 6.26 238.5 8.52 238.49 C9.67 238.47 10.82 238.45 12 238.43 C26.66 238.42 37.48 243.66 48.07 253.57 C59.95 265.9 59.95 265.9 59.95 271.88 C60.54 271.87 61.13 271.87 61.75 271.87 C68.04 271.82 74.34 271.79 80.64 271.77 C82.97 271.76 85.31 271.75 87.65 271.73 C131.31 271.41 172.23 280.17 210.95 300.88 C212.1 301.49 213.26 302.11 214.45 302.74 C228.23 310.32 241.05 319.61 252.95 329.88 C253.73 330.55 254.51 331.22 255.31 331.91 C266.78 341.99 277.6 352.8 286.95 364.88 C287.72 365.82 288.49 366.77 289.29 367.74 C296.86 377.17 302.96 387.38 308.95 397.88 C309.37 398.62 309.79 399.35 310.22 400.12 C318.98 415.58 325.19 431.97 330.62 448.86 C330.84 449.53 331.07 450.19 331.29 450.87 C331.74 452.23 332.14 453.6 332.5 454.99 C334.31 461.02 337.4 463.11 342.76 466.13 C366.55 480.53 382.02 500.84 388.95 527.88 C392.9 544.84 394.18 561.33 394.2 578.69 C394.2 579.99 394.2 579.99 394.2 581.32 C394.18 594.71 393.7 607.73 390.95 620.88 C390.78 621.68 390.62 622.48 390.46 623.31 C384.68 651.07 369.89 673.97 346.18 689.81 C342.95 691.88 342.95 691.88 340.98 692.65 C336.89 694.48 335.25 696.22 333.33 700.33 C331.98 704 330.83 707.74 329.73 711.5 C328.51 715.61 327.2 719.7 325.89 723.79 C325.64 724.59 325.38 725.39 325.12 726.21 C311.46 769 279.78 811.04 243.68 837.6 C241.88 838.92 240.11 840.28 238.34 841.64 C213.82 860.29 185.44 873.33 155.95 881.88 C155.28 882.07 154.62 882.27 153.93 882.47 C146.76 884.57 139.55 886.24 132.2 887.57 C131.53 887.69 130.87 887.81 130.19 887.93 C120 889.66 109.84 890.03 99.51 890.02 C98.2 890.02 96.89 890.03 95.54 890.03 C91.93 890.04 88.31 890.04 84.7 890.04 C80.79 890.04 76.88 890.05 72.97 890.06 C64.44 890.07 55.9 890.07 47.36 890.08 C42.02 890.08 36.68 890.09 31.34 890.09 C16.53 890.1 1.71 890.11 -13.11 890.12 C-14.06 890.12 -15 890.12 -15.98 890.12 C-16.93 890.12 -17.88 890.12 -18.85 890.12 C-20.78 890.12 -22.7 890.12 -24.62 890.12 C-25.58 890.12 -26.53 890.12 -27.51 890.12 C-42.94 890.12 -58.37 890.14 -73.8 890.16 C-89.68 890.19 -105.56 890.2 -121.44 890.2 C-130.34 890.2 -139.24 890.21 -148.14 890.23 C-155.72 890.24 -163.31 890.25 -170.89 890.24 C-174.75 890.24 -178.61 890.24 -182.47 890.25 C-203.65 890.32 -224.6 889.67 -245.18 884.13 C-246.17 883.87 -247.16 883.61 -248.18 883.34 C-251.15 882.54 -254.1 881.72 -257.05 880.88 C-258.36 880.52 -258.36 880.52 -259.68 880.15 C-283.25 873.44 -305.98 861.83 -326.05 847.88 C-326.73 847.41 -327.4 846.95 -328.09 846.47 C-345.36 834.4 -362.77 820.3 -376.05 803.88 C-377.04 802.71 -378.02 801.54 -379 800.37 C-397.99 777.62 -412.69 752.12 -422.74 724.25 C-423.33 722.64 -423.33 722.64 -423.93 720.99 C-425.54 716.48 -427.1 712.05 -428.1 707.37 C-430.13 698.73 -433.33 695.23 -440.62 690.63 C-442.23 689.65 -443.84 688.69 -445.45 687.72 C-451.81 683.92 -456.87 679.14 -462.05 673.88 C-462.72 673.22 -463.38 672.55 -464.06 671.87 C-490.83 643.24 -492.36 600.75 -491.14 563.84 C-489.82 532.96 -480.63 504.44 -459.05 481.88 C-458.25 480.98 -458.25 480.98 -457.42 480.05 C-451.75 473.94 -443.86 467.44 -436.18 464.05 C-433.23 462.73 -431.49 461.75 -430.01 458.8 C-429.12 456.1 -428.42 453.39 -427.74 450.63 C-414.47 402.39 -384.63 356.71 -345.05 325.88 C-344.27 325.23 -343.49 324.58 -342.68 323.91 C-330.79 314.07 -317.65 306.13 -304.05 298.88 C-303.4 298.53 -302.75 298.18 -302.08 297.82 C-269.63 280.63 -233.14 271.41 -196.4 271.91 C-194.06 271.92 -191.71 271.92 -189.37 271.92 C-185.72 271.93 -182.08 271.94 -178.44 272.01 C-174.88 272.06 -171.33 272.06 -167.78 272.04 C-166.15 272.09 -166.15 272.09 -164.48 272.14 C-161.37 272.09 -158.98 271.95 -156.05 270.88 C-153.32 267.84 -151.77 264.55 -150.05 260.88 C-142.08 249.68 -131.28 242.43 -118.05 238.88 C-113.67 238.39 -109.35 238.41 -104.95 238.49 C-103.34 238.49 -103.34 238.49 -101.71 238.5 C-97.76 238.52 -93.81 238.58 -89.87 238.63 C-81.02 238.71 -72.17 238.79 -63.05 238.88 C-63.05 210.83 -63.05 182.78 -63.05 153.88 C-66.35 153.22 -69.65 152.56 -73.05 151.88 C-93.68 145.61 -111.46 131.25 -121.81 112.37 C-132.39 92.41 -136 69.34 -130.15 47.13 C-122.41 24.2 -108.5 5.66 -87.05 -6.12 C-59.34 -19.8 -25.41 -17.65 0 0 Z M-133.05 269.88 C-135.35 273.06 -137.44 276.34 -139.49 279.69 C-140.03 280.55 -140.57 281.41 -141.13 282.29 C-143.96 286.3 -143.96 286.3 -145.05 290.88 C-145.86 290.87 -146.67 290.87 -147.5 290.86 C-155.21 290.8 -162.91 290.75 -170.62 290.72 C-174.58 290.71 -178.53 290.69 -182.49 290.65 C-199.57 290.51 -216.25 290.42 -233.05 293.88 C-234.59 294.17 -236.13 294.47 -237.67 294.76 C-281.44 303.22 -318.97 326.69 -351.05 356.88 C-351.71 357.5 -352.37 358.11 -353.05 358.75 C-357.32 362.87 -361.04 367.39 -364.75 372.02 C-366.2 373.82 -367.69 375.61 -369.21 377.36 C-390.09 401.68 -404.24 432.95 -411.64 463.91 C-413.48 471.26 -413.48 471.26 -416.31 474.32 C-417.67 475.09 -417.67 475.09 -419.05 475.88 C-420.16 476.54 -421.26 477.2 -422.4 477.89 C-423 478.23 -423.6 478.57 -424.22 478.92 C-443.54 489.94 -457.98 505.31 -465.3 526.57 C-465.54 527.24 -465.77 527.9 -466.01 528.59 C-470.98 543.99 -471.54 559.34 -471.45 575.39 C-471.43 578.81 -471.45 582.22 -471.46 585.64 C-471.49 615.39 -466.56 643.13 -444.87 665.09 C-438.65 670.87 -431.65 675.34 -424.24 679.44 C-423.35 679.93 -422.47 680.43 -421.55 680.94 C-420.76 681.37 -419.97 681.79 -419.15 682.23 C-414.38 685.99 -413.37 692 -411.86 697.62 C-403.06 730.44 -387.3 761.14 -365.05 786.88 C-364.12 787.98 -364.12 787.98 -363.16 789.11 C-350.23 803.93 -336.22 817.63 -320.05 828.88 C-319.39 829.35 -318.72 829.82 -318.04 830.3 C-300.17 842.71 -280.55 852.62 -260.05 859.88 C-259.28 860.15 -258.51 860.43 -257.71 860.71 C-232.74 869.4 -207.35 871.65 -181.11 871.49 C-177.27 871.47 -173.43 871.48 -169.59 871.49 C-162.12 871.5 -154.65 871.49 -147.17 871.46 C-138.44 871.43 -129.7 871.43 -120.96 871.43 C-105.36 871.43 -89.76 871.4 -74.16 871.37 C-59.07 871.33 -43.99 871.31 -28.91 871.3 C-27.98 871.3 -27.05 871.3 -26.09 871.3 C-25.16 871.3 -24.23 871.3 -23.28 871.3 C-21.41 871.3 -19.53 871.3 -17.66 871.3 C-16.28 871.3 -16.28 871.3 -14.87 871.3 C-0.4 871.3 14.06 871.28 28.52 871.26 C33.73 871.25 38.94 871.25 44.15 871.24 C52.41 871.24 60.67 871.23 68.93 871.2 C72.7 871.19 76.46 871.18 80.23 871.18 C109.97 871.28 109.97 871.28 139.26 866.57 C140.17 866.35 141.08 866.13 142.02 865.9 C169.91 859.07 197.7 847.95 220.95 830.88 C221.93 830.16 222.92 829.45 223.94 828.71 C226.97 826.47 229.98 824.21 232.95 821.88 C233.75 821.25 234.55 820.61 235.38 819.96 C242.24 814.46 248.61 808.6 254.82 802.38 C255.53 801.66 255.53 801.66 256.26 800.94 C264.66 792.5 272.15 783.66 278.95 773.88 C279.39 773.25 279.83 772.63 280.28 771.99 C297.1 748.17 308.07 722.28 315.96 694.27 C316.29 693.11 316.62 691.95 316.96 690.76 C317.25 689.71 317.53 688.66 317.83 687.58 C319.8 682.82 323.53 681.14 327.95 678.88 C335.74 674.25 342.39 669.14 348.95 662.88 C349.57 662.33 350.2 661.78 350.84 661.21 C368.26 645.29 373.54 618.4 374.95 595.88 C375.11 590.75 375.14 585.63 375.13 580.5 C375.13 579.8 375.13 579.09 375.13 578.36 C375.06 547.86 371.45 516.64 349.02 493.76 C342.92 487.86 335.83 482.61 328.12 479.04 C318.91 474.71 318.91 474.71 316.13 469.42 C314.95 466.02 314.14 462.55 313.4 459.02 C312.67 455.58 311.73 452.2 310.76 448.82 C310.46 447.79 310.46 447.79 310.16 446.73 C293.39 390.72 250.45 343.4 199.62 315.96 C183.27 307.39 166.43 301.02 148.51 296.57 C147.14 296.22 147.14 296.22 145.74 295.87 C124.51 290.92 103.36 290.47 81.7 290.67 C77.99 290.7 74.28 290.72 70.57 290.73 C63.36 290.76 56.15 290.81 48.95 290.88 C48.64 290.1 48.33 289.31 48.02 288.5 C46.4 284.53 44.08 281.1 41.76 277.5 C41.3 276.77 40.84 276.04 40.37 275.29 C35.08 267.07 29.53 260.77 19.95 257.88 C15.49 257.32 11.08 257.32 6.6 257.35 C5.29 257.34 3.97 257.33 2.62 257.32 C-0.95 257.3 -4.53 257.3 -8.1 257.31 C-11.09 257.31 -14.09 257.31 -17.08 257.3 C-24.15 257.28 -31.22 257.29 -38.29 257.3 C-45.56 257.32 -52.83 257.3 -60.1 257.27 C-66.36 257.24 -72.63 257.24 -78.89 257.25 C-82.62 257.25 -86.35 257.25 -90.09 257.23 C-94.25 257.21 -98.41 257.23 -102.58 257.25 C-103.8 257.24 -105.02 257.22 -106.28 257.21 C-117.56 257.34 -125.93 261.05 -133.05 269.88 Z " fill="#C8CBCE" transform="translate(561.0546875,51.12109375)"/>
<path d="M0 0 C4.26 3.35 8.26 6.91 11.95 10.88 C12.61 11.55 13.28 12.22 13.96 12.91 C29.93 29.62 36.39 50.34 36.31 73.15 C35.74 97.18 25.17 117.65 7.98 134.24 C-4.1 145.05 -18.29 150.73 -34.05 153.88 C-34.05 181.93 -34.05 209.98 -34.05 238.88 C-16.17 238.72 -16.17 238.72 1.72 238.52 C3.99 238.51 6.26 238.5 8.52 238.49 C9.67 238.47 10.82 238.45 12 238.43 C26.66 238.42 37.48 243.66 48.07 253.57 C52.71 258.41 56.85 263.92 59.95 269.88 C59.62 270.87 59.29 271.86 58.95 272.88 C59.78 272.87 60.61 272.86 61.47 272.85 C64.56 272.81 67.65 272.79 70.74 272.77 C72.74 272.75 74.73 272.73 76.73 272.7 C77.98 272.7 79.24 272.69 80.53 272.68 C81.68 272.67 82.84 272.66 84.03 272.65 C86.95 272.88 86.95 272.88 89.95 274.88 C89.95 279.01 89.49 282.79 88.95 286.88 C89.81 286.93 90.66 286.98 91.55 287.03 C99.78 287.55 107.82 288.49 115.95 289.88 C115.95 290.21 115.95 290.54 115.95 290.88 C107.44 291.37 98.93 291.74 90.41 291.97 C86.45 292.08 82.5 292.22 78.55 292.46 C53 293.97 53 293.97 46.3 288.86 C42.03 283.9 39.61 278.4 37.15 272.39 C34.1 266.05 28.98 262.39 22.64 259.7 C17.38 258.1 12.05 258.32 6.6 258.35 C5.29 258.34 3.97 258.33 2.62 258.32 C-0.95 258.3 -4.53 258.3 -8.1 258.31 C-11.09 258.31 -14.09 258.31 -17.08 258.3 C-24.15 258.28 -31.22 258.29 -38.29 258.3 C-45.56 258.32 -52.83 258.3 -60.1 258.27 C-66.36 258.24 -72.63 258.24 -78.89 258.25 C-82.62 258.25 -86.35 258.25 -90.09 258.23 C-94.25 258.21 -98.41 258.23 -102.58 258.25 C-103.8 258.24 -105.02 258.22 -106.28 258.21 C-115.96 258.32 -123.07 260.65 -129.99 267.57 C-132.73 270.65 -134.33 273.44 -135.68 277.28 C-137.83 282.77 -140.17 287.39 -145.05 290.88 C-154.95 293.87 -165.95 292.82 -176.17 292.4 C-182.24 292.18 -188.32 292.13 -194.4 292.04 C-196.6 292 -198.8 291.95 -201 291.91 C-211.94 291.7 -222.34 292.64 -233.05 294.88 C-234.59 295.17 -236.14 295.47 -237.68 295.76 C-279.22 303.78 -316.34 325.47 -347 354.16 C-349.58 356.57 -352.18 358.83 -355.05 360.88 C-353.18 353.13 -353.18 353.13 -352.05 350.88 C-352.34 348.87 -352.67 346.87 -353.05 344.88 C-354.04 344.88 -355.03 344.88 -356.05 344.88 C-356.55 343.39 -356.55 343.39 -357.05 341.88 C-360.68 342.45 -362.31 343.8 -364.8 346.44 C-365.42 347.08 -366.03 347.72 -366.66 348.38 C-367.35 349.12 -367.35 349.12 -368.05 349.88 C-368.71 349.55 -369.37 349.22 -370.05 348.88 C-362.07 340.68 -354.08 332.94 -345.05 325.88 C-344.27 325.23 -343.49 324.58 -342.68 323.91 C-330.79 314.07 -317.65 306.13 -304.05 298.88 C-303.4 298.53 -302.75 298.18 -302.08 297.82 C-269.63 280.63 -233.14 271.41 -196.4 271.91 C-194.06 271.92 -191.71 271.92 -189.37 271.92 C-185.72 271.93 -182.08 271.94 -178.44 272.01 C-174.88 272.06 -171.33 272.06 -167.78 272.04 C-166.15 272.09 -166.15 272.09 -164.48 272.14 C-161.37 272.09 -158.98 271.95 -156.05 270.88 C-153.32 267.84 -151.77 264.55 -150.05 260.88 C-142.08 249.68 -131.28 242.43 -118.05 238.88 C-113.67 238.39 -109.35 238.41 -104.95 238.49 C-103.34 238.49 -103.34 238.49 -101.71 238.5 C-97.76 238.52 -93.81 238.58 -89.87 238.63 C-81.02 238.71 -72.17 238.79 -63.05 238.88 C-63.05 210.83 -63.05 182.78 -63.05 153.88 C-66.35 153.22 -69.65 152.56 -73.05 151.88 C-93.68 145.61 -111.46 131.25 -121.81 112.37 C-132.39 92.41 -136 69.34 -130.15 47.13 C-122.41 24.2 -108.5 5.66 -87.05 -6.12 C-59.34 -19.8 -25.41 -17.65 0 0 Z " fill="#C8CBCE" transform="translate(561.0546875,51.12109375)"/>
<path d="M0 0 C1.03 0.74 2.06 1.49 3.12 2.25 C11.36 10.13 16.88 19.45 21 30 C21.34 30.82 21.68 31.64 22.03 32.49 C27.62 48.68 24.62 67.91 17.5 83 C9.2 99.51 -5.23 110.94 -22.43 117.26 C-40.75 122.88 -59.09 120.91 -76 112 C-93.55 102.36 -104.29 87.44 -110.08 68.47 C-113.27 55.29 -112.74 38.36 -107 26 C-106.25 24.36 -106.25 24.36 -105.49 22.69 C-101.69 15.05 -97.05 8.99 -91 3 C-90 1.95 -90 1.95 -88.99 0.89 C-64.46 -23.18 -25.61 -20.25 0 0 Z " fill="#1BEFF7" transform="translate(408,575)"/>
<path d="M0 0 C14.6 12.07 24.53 27.64 27.25 46.62 C28.72 66.62 23.5 85.15 10.3 100.45 C-1.65 113.09 -17.83 122.12 -35.51 122.96 C-55.31 123.33 -73.04 117.82 -87.6 104.04 C-100.13 91.48 -107.88 75.52 -108.13 57.69 C-108.1 38 -108.1 38 -103.75 28.62 C-103.04 27.02 -103.04 27.02 -102.31 25.39 C-94.09 8.57 -79.92 -3.3 -62.75 -10.38 C-41.29 -17.25 -18.08 -13.52 0 0 Z " fill="#1BEFF7" transform="translate(701.75,572.375)"/>
<path d="M0 0 C0.92 0.01 1.83 0.02 2.78 0.03 C18.97 0.4 32.5 5.65 44.69 16.38 C45.44 17.02 46.19 17.66 46.96 18.33 C57.85 28.37 65.66 43.5 66.69 58.38 C67.38 76.32 64.17 92.12 52.69 106.38 C52.01 107.23 51.33 108.09 50.62 108.97 C38.89 122.88 22.16 130.03 4.25 131.7 C-12.41 132.26 -28.08 126.95 -40.69 115.94 C-42.25 114.44 -43.79 112.92 -45.31 111.38 C-45.96 110.73 -46.61 110.08 -47.27 109.41 C-59.37 96.49 -64.11 79.85 -63.9 62.53 C-63.17 43.9 -54.77 28.17 -41.31 15.38 C-29.65 5.65 -15.21 -0.25 0 0 Z " fill="#FEFEFE" transform="translate(511.3125,55.625)"/>
<path d="M0 0 C1.03 0.74 2.06 1.49 3.12 2.25 C11.36 10.13 16.88 19.45 21 30 C21.34 30.82 21.68 31.64 22.03 32.49 C27.62 48.68 24.62 67.91 17.5 83 C9.2 99.51 -5.23 110.94 -22.43 117.26 C-40.75 122.88 -59.09 120.91 -76 112 C-93.55 102.36 -104.29 87.44 -110.08 68.47 C-113.27 55.29 -112.74 38.36 -107 26 C-106.25 24.36 -106.25 24.36 -105.49 22.69 C-101.69 15.05 -97.05 8.99 -91 3 C-90 1.95 -90 1.95 -88.99 0.89 C-64.46 -23.18 -25.61 -20.25 0 0 Z M-82.22 20.55 C-90.5 31.93 -94.4 43.91 -93 58 C-90.42 72.85 -84.23 84.04 -72 93 C-59.61 100.54 -46.94 103.06 -32.53 100.35 C-19.07 96.61 -8.53 89.05 -1.25 77.19 C5.32 65.22 6.91 53.01 4.34 39.56 C0.52 26.92 -7.28 16.43 -18.51 9.44 C-20.97 8.14 -23.42 7.04 -26 6 C-26.76 5.68 -27.51 5.36 -28.29 5.04 C-47.47 -1.93 -69.43 5.09 -82.22 20.55 Z " fill="#00A3AC" transform="translate(408,575)"/>
<path d="M0 0 C14.6 12.07 24.53 27.64 27.25 46.62 C28.72 66.62 23.5 85.15 10.3 100.45 C-1.65 113.09 -17.83 122.12 -35.51 122.96 C-55.31 123.33 -73.04 117.82 -87.6 104.04 C-100.13 91.48 -107.88 75.52 -108.13 57.69 C-108.1 38 -108.1 38 -103.75 28.62 C-103.04 27.02 -103.04 27.02 -102.31 25.39 C-94.09 8.57 -79.92 -3.3 -62.75 -10.38 C-41.29 -17.25 -18.08 -13.52 0 0 Z M-78.75 22.62 C-88.17 34.48 -91.18 47.78 -89.75 62.62 C-87.26 75.92 -80.19 87.74 -69.06 95.5 C-56.45 103.39 -43.13 105.7 -28.56 102.44 C-14.93 98.55 -4.46 90.9 2.78 78.56 C8.97 66.23 10.34 53.12 6.69 39.81 C1.9 26.22 -6.81 15.92 -19.75 9.62 C-40.86 0.76 -63.32 5.98 -78.75 22.62 Z " fill="#00A2AB" transform="translate(701.75,572.375)"/>
<path d="M0 0 C7.92 0 15.84 0 24 0 C28.23 8.82 32.21 17.7 35.94 26.75 C36.34 27.71 36.74 28.68 37.15 29.67 C37.52 30.58 37.9 31.49 38.28 32.42 C38.61 33.23 38.94 34.04 39.28 34.88 C40 37 40 37 40 40 C40.66 40 41.32 40 42 40 C42.11 39.33 42.21 38.67 42.32 37.98 C43.16 34.29 44.5 30.87 45.91 27.36 C46.19 26.64 46.48 25.92 46.77 25.18 C47.68 22.89 48.59 20.6 49.5 18.31 C50.11 16.76 50.73 15.21 51.34 13.66 C55.81 2.38 55.81 2.38 57 0 C65.58 0 74.16 0 83 0 C83 22.11 83 44.22 83 67 C76.4 67 69.8 67 63 67 C62.5 46.21 62.5 46.21 62 25 C60.86 27.86 59.71 30.73 58.54 33.68 C57.43 36.45 56.32 39.21 55.22 41.98 C54.45 43.91 53.68 45.83 52.91 47.76 C51.81 50.52 50.7 53.29 49.6 56.05 C49.25 56.92 48.91 57.78 48.55 58.67 C48.23 59.48 47.91 60.28 47.58 61.1 C47.16 62.16 47.16 62.16 46.73 63.24 C46.2 64.52 45.62 65.77 45 67 C41.04 67 37.08 67 33 67 C31.24 62.95 29.48 58.9 27.72 54.84 C27.12 53.47 26.53 52.1 25.93 50.72 C25.06 48.73 24.2 46.73 23.33 44.73 C22.81 43.54 22.3 42.35 21.76 41.12 C19.47 35.76 17.24 30.38 15 25 C14.67 38.86 14.34 52.72 14 67 C9.38 67 4.76 67 0 67 C0 44.89 0 22.78 0 0 Z " fill="#029DA7" transform="translate(452,395)"/>
<path d="M0 0 C7.26 0 14.52 0 22 0 C28.49 11.53 34.74 23.16 40.8 34.93 C41.33 35.97 41.86 37 42.41 38.07 C42.89 38.99 43.36 39.92 43.85 40.88 C44.83 42.92 44.83 42.92 46 44 C46 29.48 46 14.96 46 0 C50.62 0 55.24 0 60 0 C60 22.44 60 44.88 60 68 C52.74 68 45.48 68 38 68 C30.34 54.15 23 40.2 16 26 C15.67 39.86 15.34 53.72 15 68 C10.05 68 5.1 68 0 68 C0 45.56 0 23.12 0 0 Z " fill="#069EA8" transform="translate(610,394)"/>
<path d="M0 0 C9.57 0 19.14 0 29 0 C29 28.05 29 56.1 29 85 C19.43 85 9.86 85 0 85 C0 56.95 0 28.9 0 0 Z " fill="#A2A5A8" transform="translate(498,205)"/>
<path d="M0 0 C16.17 0 32.34 0 49 0 C49 3.96 49 7.92 49 12 C39.43 12 29.86 12 20 12 C20 16.95 20 21.9 20 27 C28.58 27 37.16 27 46 27 C46 30.96 46 34.92 46 39 C37.42 39 28.84 39 20 39 C20 43.62 20 48.24 20 53 C29.9 53 39.8 53 50 53 C50 57.62 50 62.24 50 67 C33.5 67 17 67 0 67 C0 44.89 0 22.78 0 0 Z " fill="#049DA8" transform="translate(391,395)"/>
<path d="M0 0 C15.84 0 31.68 0 48 0 C48 3.96 48 7.92 48 12 C38.43 12 28.86 12 19 12 C19 16.95 19 21.9 19 27 C27.91 27 36.82 27 46 27 C46 30.96 46 34.92 46 39 C37.09 39 28.18 39 19 39 C19 43.62 19 48.24 19 53 C29.23 53 39.46 53 50 53 C50 57.62 50 62.24 50 67 C33.5 67 17 67 0 67 C0 44.89 0 22.78 0 0 Z " fill="#029CA6" transform="translate(550,395)"/>
<path d="M0 0 C1.52 -0.02 1.52 -0.02 3.07 -0.04 C8.99 -0.05 14.07 0.47 19.75 2.19 C19.75 6.48 19.75 10.77 19.75 15.19 C18.18 14.86 16.62 14.53 15 14.19 C3.56 12.09 3.56 12.09 -7.25 15.19 C-7.92 17.47 -7.92 17.47 -7.25 20.19 C-3.35 23.83 1.71 25.58 6.62 27.44 C13.62 30.24 20.52 34.77 24 41.67 C25.68 47.32 25.58 53.08 23.19 58.5 C19.55 64.78 13.75 67.84 6.89 69.69 C-3.28 71.31 -16.84 71.89 -26.25 67.19 C-26.25 62.9 -26.25 58.61 -26.25 54.19 C-24.54 54.52 -22.83 54.85 -21.06 55.19 C-9.53 57.24 -9.53 57.24 1.58 54.82 C3.94 53.36 3.94 53.36 4.56 50.81 C3.43 47.15 1.55 46.29 -1.71 44.43 C-4.48 43.07 -7.3 41.98 -10.19 40.88 C-17.23 38.03 -23.81 33.74 -27.31 26.75 C-28.93 20.62 -29.42 15.63 -26.25 9.94 C-19.62 0.48 -10.62 0.01 0 0 Z " fill="#029CA7" transform="translate(708.25,392.8125)"/>
<path d="M0 0 C1.06 -0.01 2.12 -0.02 3.21 -0.02 C8.88 -0.01 13.71 0.33 19.06 2.25 C19.06 6.54 19.06 10.83 19.06 15.25 C17.5 14.92 15.93 14.59 14.31 14.25 C2.87 12.15 2.87 12.15 -7.94 15.25 C-8.61 17.53 -8.61 17.53 -7.94 20.25 C-3.27 23.89 1.66 25.95 7.12 28.19 C14.71 31.36 20.36 34.71 24.06 42.25 C24.86 48.37 25 54.23 22.38 59.88 C14.66 67.8 6.53 70.31 -4.31 70.49 C-12.4 70.52 -19.19 69.9 -26.94 67.25 C-26.94 62.96 -26.94 58.67 -26.94 54.25 C-25.43 54.58 -23.93 54.91 -22.38 55.25 C-14.84 56.62 -3.73 58.54 3.06 54.25 C3.06 51.61 3.06 48.97 3.06 46.25 C0.26 45.11 -2.54 44.04 -5.39 43.02 C-14.04 39.89 -22.24 36.51 -27.14 28.21 C-29.4 22.87 -29.79 17.8 -27.94 12.25 C-20.74 1.46 -12.29 -0.09 0 0 Z " fill="#029CA7" transform="translate(321.9375,392.75)"/>
<path d="M0 0 C6.6 0 13.2 0 20 0 C20 22.11 20 44.22 20 67 C13.4 67 6.8 67 0 67 C0 44.89 0 22.78 0 0 Z " fill="#009BA6" transform="translate(356,395)"/>
<path d="M0 0 C2.36 3.03 3.9 5.05 4 9 C2.06 11.81 2.06 11.81 0 14 C-0.66 13.67 -1.32 13.34 -2 13 C-1.67 12.34 -1.34 11.68 -1 11 C-0.77 9.13 -0.59 7.25 -0.44 5.38 C-0.35 4.37 -0.27 3.37 -0.18 2.34 C-0.12 1.57 -0.06 0.79 0 0 Z " fill="#E0F4F5" transform="translate(346,438)"/>
</svg>
